<?xml version="1.0" encoding="utf-8"?>
<!-- Generator: Adobe Illustrator 27.5.0, SVG Export Plug-In . SVG Version: 6.00 Build 0)  -->
<svg version="1.1" id="Calque_1" xmlns="http://www.w3.org/2000/svg" x="0px"
	 y="0px"
	 viewBox="0 0 250 120" style="enable-background:new 0 0 250 120;" xml:space="preserve">
<style type="text/css">
	.st0{fill:#FFFFFF;}
</style>
    <g>
	<g>
		<g>
			<path class="st0" d="M98.9,83.05c0.03,0.97,0.26,1.84,0.69,2.62c0.43,0.78,1.07,1.38,1.91,1.82c0.84,0.44,1.87,0.66,3.1,0.66
				c1.06,0,1.97-0.15,2.74-0.44c0.77-0.29,1.4-0.64,1.91-1.05c0.51-0.41,0.88-0.79,1.12-1.15l2.12,2.88
				c-0.46,0.63-1.04,1.18-1.74,1.68c-0.7,0.49-1.57,0.88-2.6,1.15c-1.04,0.28-2.31,0.41-3.83,0.41c-2,0-3.73-0.41-5.21-1.23
				c-1.48-0.82-2.62-1.97-3.43-3.47c-0.81-1.49-1.22-3.23-1.22-5.23c0-1.79,0.37-3.4,1.12-4.84c0.75-1.44,1.83-2.57,3.25-3.41
				c1.42-0.83,3.13-1.25,5.13-1.25c1.86,0,3.48,0.37,4.85,1.12c1.37,0.75,2.43,1.82,3.19,3.21c0.75,1.39,1.13,3.07,1.13,5.04
				c0,0.12,0,0.37-0.01,0.74c-0.01,0.37-0.03,0.62-0.06,0.74H98.9z M108.65,79.56c-0.01-0.48-0.18-1.02-0.48-1.63
				c-0.31-0.61-0.79-1.14-1.46-1.6c-0.67-0.45-1.57-0.68-2.68-0.68c-1.15,0-2.08,0.22-2.79,0.66c-0.72,0.44-1.24,0.96-1.59,1.57
				c-0.34,0.6-0.54,1.17-0.6,1.69H108.65z"/>
            <path class="st0" d="M121.95,100.4h-4.74V72.74h4.81v3.2c0.16-0.45,0.55-0.96,1.15-1.54c0.6-0.58,1.4-1.09,2.4-1.53
				c1-0.44,2.14-0.66,3.42-0.66c1.73,0,3.25,0.41,4.55,1.24c1.3,0.83,2.33,1.97,3.06,3.43c0.74,1.46,1.11,3.14,1.11,5.05
				s-0.38,3.59-1.14,5.05s-1.81,2.6-3.14,3.42c-1.33,0.82-2.87,1.23-4.59,1.23c-1.36,0-2.53-0.25-3.53-0.75
				c-1-0.5-1.78-1.06-2.35-1.69c-0.57-0.63-0.9-1.13-1.01-1.5V100.4z M133,81.93c0-1.18-0.25-2.21-0.74-3.09
				c-0.49-0.88-1.14-1.56-1.96-2.05c-0.81-0.48-1.7-0.73-2.67-0.73c-1.04,0-1.99,0.25-2.84,0.75c-0.85,0.5-1.52,1.18-2.02,2.06
				c-0.5,0.87-0.75,1.89-0.75,3.05s0.25,2.18,0.75,3.05c0.5,0.87,1.17,1.55,2.02,2.05c0.85,0.49,1.8,0.74,2.84,0.74
				c0.97,0,1.86-0.24,2.67-0.72c0.81-0.48,1.46-1.15,1.96-2.03C132.75,84.14,133,83.11,133,81.93z"/>
            <path class="st0" d="M144.38,67.24c-0.8,0-1.49-0.29-2.07-0.87c-0.57-0.58-0.86-1.27-0.86-2.08c0-0.8,0.29-1.5,0.86-2.09
				c0.57-0.59,1.26-0.88,2.07-0.88c0.54,0,1.03,0.14,1.49,0.41c0.45,0.28,0.82,0.63,1.1,1.07c0.28,0.44,0.41,0.94,0.41,1.49
				c0,0.8-0.29,1.5-0.87,2.08C145.92,66.95,145.21,67.24,144.38,67.24z M141.94,91.1V72.74h4.76V91.1H141.94z"/>
            <path class="st0" d="M175.3,72.21c1.37,0,2.55,0.29,3.54,0.87c0.99,0.58,1.76,1.48,2.3,2.68c0.54,1.21,0.82,2.75,0.82,4.63V91.1
				h-4.72v-9.86c0-1.77-0.25-3.12-0.75-4.05c-0.5-0.92-1.43-1.39-2.81-1.39c-0.75,0-1.45,0.2-2.1,0.6c-0.66,0.4-1.18,1-1.58,1.8
				c-0.4,0.8-0.59,1.81-0.59,3.03v9.86h-4.43v-9.86c0-1.77-0.3-3.12-0.91-4.05c-0.6-0.92-1.5-1.39-2.69-1.39
				c-0.76,0-1.46,0.19-2.1,0.58c-0.64,0.39-1.16,0.98-1.54,1.79c-0.39,0.8-0.58,1.83-0.58,3.06v9.86h-4.74V72.74h4.74v2.75
				c0.16-0.46,0.53-0.95,1.11-1.45c0.57-0.51,1.29-0.94,2.16-1.3c0.86-0.36,1.81-0.54,2.84-0.54c1.12,0,2.05,0.21,2.78,0.62
				c0.74,0.41,1.33,0.92,1.77,1.53c0.44,0.61,0.76,1.22,0.97,1.83c0.21-0.61,0.61-1.22,1.22-1.83c0.6-0.61,1.36-1.12,2.27-1.53
				C173.19,72.41,174.19,72.21,175.3,72.21z"/>
            <path class="st0" d="M201.48,91.1v-3.4c-0.12,0.36-0.46,0.85-1.02,1.48c-0.56,0.63-1.32,1.19-2.28,1.7s-2.1,0.76-3.41,0.76
				c-1.71,0-3.26-0.41-4.63-1.23c-1.37-0.82-2.45-1.96-3.24-3.42c-0.79-1.46-1.18-3.14-1.18-5.05s0.39-3.59,1.18-5.05
				c0.79-1.46,1.87-2.61,3.24-3.43c1.37-0.83,2.91-1.24,4.63-1.24c1.28,0,2.39,0.22,3.33,0.67c0.94,0.45,1.7,0.96,2.27,1.54
				c0.57,0.58,0.93,1.09,1.06,1.52v-3.2h4.74V91.1H201.48z M190.43,81.93c0,1.18,0.26,2.21,0.78,3.09c0.52,0.88,1.2,1.56,2.05,2.03
				c0.84,0.48,1.75,0.72,2.72,0.72c1.04,0,1.97-0.25,2.78-0.74c0.81-0.49,1.45-1.17,1.92-2.05c0.47-0.87,0.7-1.89,0.7-3.05
				s-0.23-2.18-0.7-3.05c-0.47-0.87-1.11-1.56-1.92-2.06c-0.81-0.5-1.74-0.75-2.78-0.75c-0.97,0-1.87,0.24-2.72,0.73
				c-0.84,0.48-1.52,1.17-2.05,2.05S190.43,80.76,190.43,81.93z"/>
            <path class="st0" d="M220.17,87.77c1.06,0,1.92-0.18,2.58-0.53c0.66-0.35,1.09-0.61,1.29-0.77l2.26,3.35
				c-0.18,0.15-0.55,0.37-1.12,0.66c-0.57,0.29-1.29,0.56-2.16,0.79c-0.87,0.24-1.86,0.36-2.96,0.36c-1.82,0-3.47-0.38-4.95-1.15
				c-1.48-0.77-2.67-1.88-3.56-3.33c-0.89-1.45-1.33-3.2-1.33-5.24c0-2.06,0.44-3.81,1.33-5.26c0.89-1.45,2.07-2.55,3.56-3.31
				c1.48-0.76,3.13-1.14,4.95-1.14c1.09,0,2.06,0.12,2.92,0.37c0.86,0.25,1.57,0.52,2.14,0.84c0.57,0.31,0.95,0.56,1.14,0.74
				l-2.3,3.35c-0.1-0.1-0.32-0.27-0.64-0.5c-0.32-0.23-0.74-0.44-1.26-0.64c-0.52-0.19-1.15-0.29-1.88-0.29
				c-0.89,0-1.75,0.24-2.57,0.72c-0.82,0.48-1.49,1.15-2.01,2.02c-0.52,0.87-0.78,1.9-0.78,3.1c0,1.19,0.26,2.23,0.78,3.11
				c0.52,0.88,1.19,1.56,2.01,2.03C218.42,87.53,219.28,87.77,220.17,87.77z"/>
		</g>
        <g>
			<path class="st0" d="M57.02,39.2c-0.51,0-1.01-0.15-1.45-0.43c-0.64-0.42-1.08-1.09-1.19-1.85v0
				c-0.94-6.45,1.63-14.36,11.69-17.23c0.69-0.19,1.44-0.1,2.06,0.26c0.62,0.36,1.08,0.98,1.25,1.68
				c1.55,6.42-0.69,14.39-11.66,17.46C57.5,39.17,57.26,39.2,57.02,39.2z M65.81,23.93c-6.75,2.5-7.75,7.66-7.65,10.9
				C65.52,32.19,66.18,27.06,65.81,23.93z"/>
		</g>
        <g>
			<g>
				<path class="st0" d="M85.46,54.8c-0.06-0.87-0.2-1.67-0.33-2.43c-1.46-8.14-7.14-12.61-15.2-11.96c-2.89,0.24-5.7,0.88-8.44,1.5
					l-1.33,0.31c-2.31,0.52-4.22,0.54-6.01,0.07c-0.79-0.21-1.59-0.39-2.38-0.57l-1.18-0.26c-2.86-0.65-5.82-1.31-9.05-1.07
					c-2.88,0.22-5.6,1.34-7.76,3.26c-1.11,0.99-2.08,2.23-2.92,3.44c-0.99,1.43-1.7,3.32,0.19,4.43c0.84,0.5,1.97,0.45,2.78-0.1
					c0.88-0.61,1.28-1.68,1.88-2.56c2.06-3.05,6.34-3.72,9.98-3.17c3.64,0.55,7.15,2.01,10.84,2.1c4.1,0.1,8.03-1.49,12.09-2.08
					c2.76-0.4,5.79-0.26,8.04,1.39c2.87,2.11,3.68,6.06,3.66,9.63c-0.04,8.24-3.23,16.18-7.5,23.22c-1.65,2.73-3.87,5.62-7.04,5.98
					c-2.74,0.31-5.3-1.39-8.04-1.72c-3.7-0.45-7.22,1.61-10.92,2.11c-3.11,0.42-6.37-0.33-8.99-2.06c2.49-0.95,5.09-1.64,7.53-2.74
					c2.43-1.1,4.75-2.69,6.1-5c2.01-3.43,1.44-8.07-1.08-11.14c-5.83-7.09-17.55-4.33-21.26,3.48c-1.78,3.74-1.89,8.12-0.55,11.98
					c-0.39,0.08-0.79,0.15-1.19,0.22c-0.04,0.01-0.29,0.05-0.29,0.05c-0.22,0.04-0.45,0.06-0.68,0.11
					c-1.41,0.21-2.78,1.23-2.66,2.84c0.11,1.34,1.31,2.9,2.84,2.66c1.61-0.25,3.23-0.53,4.82-0.87c0.12-0.02,1.04,1.14,1.22,1.31
					c0.49,0.45,1.03,0.85,1.57,1.23c1.06,0.75,2.21,1.38,3.4,1.9c4.36,1.88,9.36,2.04,13.91,0.81c1.29-0.35,2.57-0.79,3.78-1.36
					c1.13-0.51,1.98-0.66,3.14-0.2c2.14,0.84,4.04,1.65,6.4,1.65c3.94,0,7.68-1.9,10.37-5.51c2.81-3.76,5.13-8.06,7.08-13.14
					c2.22-5.74,3.24-10.62,3.23-15.38l0.01-0.62c0-0.21,0.01-0.44,0.01-0.68C85.49,55.53,85.48,55.17,85.46,54.8z M36.81,78.75
					c-0.95,0.3-1.91,0.58-2.88,0.84c-0.04-0.08-0.07-0.17-0.1-0.25c-0.12-0.33-0.24-0.68-0.33-1.03c-0.08-0.3-0.14-0.61-0.21-0.92
					c-0.01-0.01-0.01-0.03-0.02-0.05c0-0.02-0.01-0.04-0.01-0.05c0-0.04-0.01-0.06-0.02-0.1c-0.02-0.12-0.03-0.25-0.04-0.37
					c-0.07-0.67-0.11-1.33-0.07-2.01c0.01-0.14,0.06-0.59,0.06-0.64c0.04-0.32,0.09-0.64,0.17-0.95c0.07-0.31,0.14-0.6,0.24-0.9
					c0.02-0.06,0.04-0.12,0.06-0.19c0.01-0.04,0.03-0.11,0.05-0.16c0-0.01,0.01-0.02,0.01-0.03c0.01-0.01,0.01-0.03,0.01-0.04
					c0.28-0.63,0.6-1.22,0.97-1.8c0,0,0,0,0-0.01c0.02-0.02,0.03-0.04,0.04-0.06c0,0,0.01-0.02,0.02-0.03
					c0.06-0.08,0.12-0.17,0.19-0.25c0.18-0.23,0.39-0.46,0.6-0.67c0.22-0.23,0.46-0.44,0.69-0.66c0,0,0-0.01,0.01-0.01
					c0.01-0.01,0.01-0.02,0.02-0.02c0.14-0.1,0.27-0.21,0.41-0.31c0.28-0.18,0.55-0.36,0.84-0.53c0.13-0.07,0.25-0.14,0.39-0.21
					c0.01,0,0.04-0.02,0.07-0.04c0.03-0.01,0.05-0.02,0.08-0.04c0,0,0.01-0.01,0.02-0.01c0.08-0.03,0.15-0.06,0.18-0.08
					c0.14-0.05,0.27-0.1,0.41-0.14c0.34-0.12,0.69-0.23,1.04-0.31c0.14-0.03,0.21-0.04,0.24-0.06h0.01c0.03,0,0.06,0,0.11-0.01
					c0.32-0.04,0.66-0.06,0.98-0.07c0.28,0,0.55,0.01,0.83,0.03c0.02,0,0.03,0.01,0.04,0.01c0.18,0.04,0.38,0.06,0.57,0.1
					c0.33,0.08,0.67,0.18,1.01,0.27c0.04,0.01,0.09,0.04,0.14,0.05c0.03,0.01,0.06,0.03,0.09,0.04c0.01,0,0.01,0,0.01,0
					c0.06,0.04,0.12,0.05,0.18,0.09c0.29,0.13,0.56,0.28,0.82,0.45c0.07,0.04,0.14,0.09,0.21,0.13c0,0.01,0.32,0.24,0.37,0.28
					c0.25,0.21,0.47,0.43,0.69,0.67l0.03,0.03c0.01,0.01,0.02,0.02,0.03,0.03c0.01,0.01,0.02,0.03,0.02,0.04
					c0.03,0.03,0.04,0.05,0.05,0.07c0,0,0.01,0,0.01,0.01s0.01,0.01,0.01,0.01c0.01,0.02,0.02,0.03,0.02,0.03
					c0.04,0.05,0.07,0.1,0.11,0.15c0.17,0.25,0.32,0.51,0.46,0.77c0,0.01,0.01,0.02,0.01,0.04c0.08,0.19,0.16,0.37,0.22,0.57
					c0.06,0.19,0.11,0.39,0.16,0.59c0.03,0.03,0.06,0.14,0.07,0.23c-0.01,0.01,0,0.01,0,0.02c0,0.01,0,0.01,0,0.01
					c0.02,0.14,0.03,0.29,0.04,0.42c0.01,0.18,0.02,0.37,0.01,0.55v0.12c0,0.03-0.01,0.04-0.01,0.05c-0.01,0.07-0.02,0.16-0.02,0.19
					c-0.04,0.18-0.09,0.35-0.13,0.53c0,0.04-0.01,0.07-0.02,0.1c0,0.01,0,0.01,0,0.01c-0.05,0.12-0.11,0.24-0.18,0.36
					c-0.07,0.13-0.16,0.25-0.23,0.39c0,0,0,0.01,0,0.02c-0.18,0.2-0.36,0.41-0.56,0.6c-0.08,0.08-0.16,0.16-0.25,0.23
					c0,0,0,0,0,0.01c0,0-0.01,0-0.02,0.01c-0.04,0.03-0.11,0.09-0.21,0.15c-0.59,0.42-1.21,0.75-1.84,1.08
					c-0.04,0.02-0.08,0.04-0.11,0.05c0,0.01-0.01,0.01-0.01,0.01c-0.16,0.06-0.31,0.13-0.46,0.2c-0.42,0.18-0.84,0.35-1.26,0.53
					C40.24,77.58,38.54,78.21,36.81,78.75z"/>
			</g>
		</g>
	</g>
</g>
</svg>
